<svg xmlns="http://www.w3.org/2000/svg" viewBox="0 0 400 300" width="406" height="306" class="illustration styles_illustrationTablet__1DWOa"><g id="_62_office_work_outline" data-name="#62_office_work_outline"><rect x="78.21" y="190.62" width="243.58" height="9.18" rx="4.55" fill="#fff"></rect><path d="M317.24,200.8H82.76a5.59,5.59,0,0,1,0-11.18H317.24a5.59,5.59,0,0,1,0,11.18ZM82.76,191.62a3.59,3.59,0,0,0,0,7.18H317.24a3.59,3.59,0,0,0,0-7.18Z" fill="#093f68"></path><path d="M243.43,97.78v64.38a5.61,5.61,0,0,1-5.61,5.61H145a5.61,5.61,0,0,1-5.61-5.61V97.78A5.61,5.61,0,0,1,145,92.17h92.84A5.61,5.61,0,0,1,243.43,97.78Z" fill="#68e1fd"></path><path d="M237.82,168.77H145a6.68,6.68,0,0,1-4.82-2.08,6.6,6.6,0,0,1-1.79-4.53V97.78A6.62,6.62,0,0,1,145,91.17h92.84a6.61,6.61,0,0,1,6.61,6.61v64.38A6.61,6.61,0,0,1,237.82,168.77ZM145,93.17a4.62,4.62,0,0,0-4.61,4.61v64.38a4.54,4.54,0,0,0,1.25,3.15,4.63,4.63,0,0,0,3.36,1.46h92.84a4.61,4.61,0,0,0,4.61-4.61V97.78a4.61,4.61,0,0,0-4.61-4.61Z" fill="#093f68"></path><rect x="144.98" y="97.33" width="92.84" height="55" fill="#fff"></rect><path d="M237.82,153.33H145a1,1,0,0,1-1-1v-55a1,1,0,0,1,1-1h92.84a1,1,0,0,1,1,1v55A1,1,0,0,1,237.82,153.33Zm-91.84-2h90.84v-53H146Z" fill="#093f68"></path><polygon points="211.2 190.62 171.6 190.62 175.79 167.77 207.01 167.77 211.2 190.62" fill="#68e1fd"></polygon><path d="M211.2,191.62H171.6a1,1,0,0,1-.76-.36,1,1,0,0,1-.22-.82l4.19-22.85a1,1,0,0,1,1-.82H207a1,1,0,0,1,1,.82l4.18,22.85a1,1,0,0,1-.21.82A1,1,0,0,1,211.2,191.62Zm-38.4-2H210l-3.82-20.85H176.63Z" fill="#093f68"></path><path d="M190.68,147.69H157.93a1,1,0,0,1-1-1V121.28a1,1,0,0,1,1-1h32.75a1,1,0,0,1,1,1v25.41A1,1,0,0,1,190.68,147.69Zm-31.75-2h30.75V122.28H158.93Z" fill="#dfeaef"></path><path d="M157.94,142.51a1,1,0,0,1-.56-1.83l12.24-8.11a1,1,0,0,1,1.33.2l3.71,4.54,9.21-8.85a1,1,0,0,1,1.41,0,1,1,0,0,1,0,1.42l-10,9.61a1,1,0,0,1-.76.27,1,1,0,0,1-.71-.36L170,134.74l-11.49,7.6A1,1,0,0,1,157.94,142.51Z" fill="#dfeaef"></path><path d="M185.43,134.7h-.06a1,1,0,0,1-.94-1.06l.32-4.88h-5a1,1,0,0,1,0-2h6a1,1,0,0,1,1,1.06l-.38,6A1,1,0,0,1,185.43,134.7Z" fill="#dfeaef"></path><path d="M224.86,125.07H199.15a1,1,0,0,1,0-2h25.71a1,1,0,0,1,0,2Z" fill="#dfeaef"></path><path d="M219.71,130.79H199.15a1,1,0,0,1,0-2h20.56a1,1,0,0,1,0,2Z" fill="#dfeaef"></path><path d="M224.86,138.09H199.15a1,1,0,0,1,0-2h25.71a1,1,0,0,1,0,2Z" fill="#dfeaef"></path><path d="M213.43,143.8H199.15a1,1,0,0,1,0-2h14.28a1,1,0,0,1,0,2Z" fill="#dfeaef"></path><path d="M224.86,117.63H157.93a1,1,0,0,1-1-1V110a1,1,0,0,1,1-1h66.93a1,1,0,0,1,1,1v6.68A1,1,0,0,1,224.86,117.63Zm-65.93-2h64.93V111H158.93Z" fill="#dfeaef"></path><circle cx="191.4" cy="159.49" r="2.43" fill="#093f68"></circle><path d="M191.4,162.93a3.44,3.44,0,1,1,3.44-3.44A3.44,3.44,0,0,1,191.4,162.93Zm0-4.87a1.44,1.44,0,0,0,0,2.87,1.44,1.44,0,1,0,0-2.87Z" fill="#093f68"></path><path d="M233.46,190.13c0-4.8,5.31-8.69,11.86-8.69s11.86,3.89,11.86,8.69Z" fill="#fff"></path><path d="M257.18,191.13H233.46a1,1,0,0,1-1-1c0-5.34,5.77-9.69,12.86-9.69s12.86,4.35,12.86,9.69A1,1,0,0,1,257.18,191.13Zm-22.63-2h21.54c-.7-3.77-5.26-6.69-10.77-6.69S235.25,185.36,234.55,189.13Z" fill="#093f68"></path><path d="M245.32,185.2a1,1,0,0,1-1-1v-4.39a1,1,0,0,1,2,0v4.39A1,1,0,0,1,245.32,185.2Z" fill="#093f68"></path><path d="M108.47,162.33h13.21a5.7,5.7,0,0,1,5.7,5.7v22.59a0,0,0,0,1,0,0H102.77a0,0,0,0,1,0,0V168A5.7,5.7,0,0,1,108.47,162.33Z" transform="translate(230.14 352.95) rotate(-180)" fill="#68e1fd"></path><path d="M121.67,191.62h-13.2a6.7,6.7,0,0,1-6.7-6.7V162.33a1,1,0,0,1,1-1h24.61a1,1,0,0,1,1,1v22.59A6.71,6.71,0,0,1,121.67,191.62Zm-17.9-28.29v21.59a4.71,4.71,0,0,0,4.7,4.7h13.2a4.71,4.71,0,0,0,4.71-4.7V163.33Z" fill="#093f68"></path><path d="M100,183.62c-1.78,0-3.43-.15-4.69-1.39s-1.89-3.49-1.89-7,.6-5.69,1.89-7c1.47-1.44,3.46-1.42,5.56-1.39h1.92a1,1,0,0,1,1,1v14.71a1,1,0,0,1-1,1H100Zm0-14.74c-1.41,0-2.54.11-3.26.83-.88.86-1.3,2.67-1.3,5.54s.42,4.69,1.3,5.55,2.31.84,4.12.81h1l0-12.71H100Z" fill="#093f68"></path><rect x="264.64" y="146.89" width="10.1" height="43.53" fill="#70cc40"></rect><path d="M274.74,191.42h-10.1a1,1,0,0,1-1-1V146.89a1,1,0,0,1,1-1h10.1a1,1,0,0,1,1,1v43.53A1,1,0,0,1,274.74,191.42Zm-9.1-2h8.1V147.89h-8.1Z" fill="#093f68"></path><rect x="274.74" y="152.6" width="11.4" height="38.02" fill="#f56132"></rect><path d="M286.14,191.62h-11.4a1,1,0,0,1-1-1v-38a1,1,0,0,1,1-1h11.4a1,1,0,0,1,1,1v38A1,1,0,0,1,286.14,191.62Zm-10.4-2h9.4v-36h-9.4Z" fill="#093f68"></path><rect x="286.94" y="145.35" width="14.46" height="45.27" fill="#ffbc0e"></rect><path d="M301.41,191.62H286.94a1,1,0,0,1-1-1V145.35a1,1,0,0,1,1-1h14.47a1,1,0,0,1,1,1v45.27A1,1,0,0,1,301.41,191.62Zm-13.47-2h12.47V146.35H287.94Z" fill="#093f68"></path><rect x="301.41" y="159.5" width="13.22" height="30.91" fill="#725858"></rect><path d="M314.62,191.42H301.41a1,1,0,0,1-1-1V159.5a1,1,0,0,1,1-1h13.21a1,1,0,0,1,1,1v30.92A1,1,0,0,1,314.62,191.42Zm-12.21-2h11.21V160.5H302.41Z" fill="#093f68"></path><path d="M314.62,170.62H301.41a1,1,0,0,1,0-2h13.21a1,1,0,0,1,0,2Z" fill="#093f68"></path><path d="M301.41,157H286.94a1,1,0,0,1,0-2h14.47a1,1,0,0,1,0,2Z" fill="#093f68"></path><path d="M301.41,180.81H286.94a1,1,0,0,1,0-2h14.47a1,1,0,0,1,0,2Z" fill="#093f68"></path><circle cx="280.14" cy="161.54" r="2.03" fill="#093f68"></circle><path d="M280.14,164.57a3,3,0,1,1,3-3A3,3,0,0,1,280.14,164.57Zm0-4.07a1,1,0,1,0,1,1A1,1,0,0,0,280.14,160.5Z" fill="#093f68"></path><path d="M274.74,160.5h-10.1a1,1,0,0,1,0-2h10.1a1,1,0,0,1,0,2Z" fill="#093f68"></path><path d="M274.74,178.77h-10.1a1,1,0,0,1,0-2h10.1a1,1,0,0,1,0,2Z" fill="#093f68"></path><path d="M272.94,182.44h-8.3a1,1,0,0,1,0-2h8.3a1,1,0,0,1,0,2Z" fill="#093f68"></path><rect x="260.6" y="99.17" width="19.57" height="19.57" fill="#fff"></rect><path d="M280.17,119.74H260.6a1,1,0,0,1-1-1V99.17a1,1,0,0,1,1-1h19.57a1,1,0,0,1,1,1v19.57A1,1,0,0,1,280.17,119.74Zm-18.57-2h17.57V100.17H261.6Z" fill="#dfeaef"></path><path d="M270.39,103.7a1,1,0,0,1-1-1V97.2a1,1,0,1,1,2,0v5.5A1,1,0,0,1,270.39,103.7Z" fill="#dfeaef"></path><rect x="292.18" y="113.29" width="17.78" height="17.78" fill="#fff"></rect><path d="M310,132.06H292.18a1,1,0,0,1-1-1V113.29a1,1,0,0,1,1-1H310a1,1,0,0,1,1,1v17.77A1,1,0,0,1,310,132.06Zm-16.77-2H309V114.29H293.18Z" fill="#dfeaef"></path><path d="M301.06,117.5a1,1,0,0,1-1-1v-5a1,1,0,0,1,2,0v5A1,1,0,0,1,301.06,117.5Z" fill="#dfeaef"></path><rect x="85.54" y="102.76" width="34.93" height="34.93" fill="#fff"></rect><path d="M120.47,138.7H85.54a1,1,0,0,1-1-1V102.76a1,1,0,0,1,1-1h34.93a1,1,0,0,1,1,1V137.7A1,1,0,0,1,120.47,138.7Zm-33.93-2h32.93V103.76H86.54Z" fill="#dfeaef"></path><rect x="85.54" y="102.76" width="34.93" height="8" fill="#fff"></rect><path d="M120.47,111.76H85.54a1,1,0,0,1-1-1v-8a1,1,0,0,1,1-1h34.93a1,1,0,0,1,1,1v8A1,1,0,0,1,120.47,111.76Zm-33.93-2h32.93v-6H86.54Z" fill="#dfeaef"></path><path d="M94,127.5,98.63,123l.42-.43a3.72,3.72,0,0,0,.4-.49,2.78,2.78,0,0,0,.3-.53,1.66,1.66,0,0,0,.11-.58,1.46,1.46,0,0,0-.14-.67,1.66,1.66,0,0,0-.38-.49,1.74,1.74,0,0,0-.55-.31,1.89,1.89,0,0,0-.67-.11,1.79,1.79,0,0,0-1.26.44,1.86,1.86,0,0,0-.59,1.19l-2.14-.17a3.88,3.88,0,0,1,.4-1.47,3.09,3.09,0,0,1,.86-1.06,3.75,3.75,0,0,1,1.22-.65,5.15,5.15,0,0,1,1.51-.22,5,5,0,0,1,1.52.22,3.8,3.8,0,0,1,1.22.62,2.93,2.93,0,0,1,.84,1.06,4,4,0,0,1-.22,3.47,7.36,7.36,0,0,1-1.33,1.57l-3.71,3.45H102v1.83H94Z" fill="#dfeaef"></path><path d="M104,127.5l4.67-4.51.42-.43a3.72,3.72,0,0,0,.4-.49,2.78,2.78,0,0,0,.3-.53,1.52,1.52,0,0,0,0-1.25,1.51,1.51,0,0,0-.38-.49,1.74,1.74,0,0,0-.55-.31,1.85,1.85,0,0,0-.67-.11,1.79,1.79,0,0,0-1.26.44,1.91,1.91,0,0,0-.59,1.19l-2.14-.17a3.88,3.88,0,0,1,.4-1.47,3.21,3.21,0,0,1,.86-1.06,3.86,3.86,0,0,1,1.22-.65,5.2,5.2,0,0,1,1.51-.22,5,5,0,0,1,1.52.22,3.75,3.75,0,0,1,1.23.62,2.91,2.91,0,0,1,.83,1.06,3.57,3.57,0,0,1,.3,1.51,3.64,3.64,0,0,1-.51,2,7.72,7.72,0,0,1-1.34,1.57l-3.71,3.45H112v1.83h-8Z" fill="#dfeaef"></path><path d="M92.67,105.83a1,1,0,0,1-1-1v-5a1,1,0,0,1,2,0v5A1,1,0,0,1,92.67,105.83Z" fill="#dfeaef"></path><path d="M99.56,105.83a1,1,0,0,1-1-1v-5a1,1,0,0,1,2,0v5A1,1,0,0,1,99.56,105.83Z" fill="#dfeaef"></path><path d="M106.45,105.83a1,1,0,0,1-1-1v-5a1,1,0,0,1,2,0v5A1,1,0,0,1,106.45,105.83Z" fill="#dfeaef"></path><path d="M113.33,105.83a1,1,0,0,1-1-1v-5a1,1,0,0,1,2,0v5A1,1,0,0,1,113.33,105.83Z" fill="#dfeaef"></path><rect x="162.15" y="184" width="58.51" height="6.42" rx="2.63" fill="#68e1fd"></rect><path d="M218,191.42H164.78a3.64,3.64,0,0,1-3.63-3.63v-1.16a3.64,3.64,0,0,1,3.63-3.63H218a3.64,3.64,0,0,1,3.63,3.63v1.16A3.64,3.64,0,0,1,218,191.42ZM164.78,185a1.63,1.63,0,0,0-1.63,1.63v1.16a1.63,1.63,0,0,0,1.63,1.63H218a1.64,1.64,0,0,0,1.63-1.63v-1.16A1.64,1.64,0,0,0,218,185Z" fill="#093f68"></path></g></svg>